<?xml version="1.0" encoding="utf-8"?>
<!-- Generator: Adobe Illustrator 26.1.0, SVG Export Plug-In . SVG Version: 6.00 Build 0)  -->
<svg version="1.1" id="Calque_1" xmlns="http://www.w3.org/2000/svg" xmlns:xlink="http://www.w3.org/1999/xlink" x="0px" y="0px"
	 viewBox="0 0 115 115" style="enable-background:new 0 0 115 115;" xml:space="preserve">
<style type="text/css">
	.st0{stroke:#000000;stroke-width:60;stroke-linejoin:round;stroke-miterlimit:10;}
	.st1{fill:#FFFFFF;}
</style>
<rect x="35" y="35" class="st0" width="45" height="45"/>
<g>
	<path class="st1" d="M89.3,81.2c-2.6,1.6-5.7,1.6-8.3,0c-3.7-2.2-8.1-2.2-11.8,0c-2.6,1.6-5.7,1.6-8.3,0c-3.7-2.2-8.1-2.2-11.8,0
		c-2.1,1.2-4.4,1.5-6.6,0.7l-1.3,4.5l0,0c3.1,1.1,6.6,0.7,9.6-1c2.6-1.5,5.7-1.5,8.3,0C61,86.5,63,87,64.9,87c2,0,4-0.5,5.9-1.6
		c2.6-1.5,5.7-1.5,8.3,0c3.7,2.2,8.1,2.2,11.8,0c1-0.5,1.4-1.9,0.8-3.1C91.5,81.1,90.3,80.6,89.3,81.2z"/>
	<path class="st1" d="M89.3,71.7c-2.6,1.5-5.7,1.5-8.3,0c-3.7-2.2-8.1-2.2-11.8,0c-2.6,1.5-5.7,1.5-8.3,0c-3.7-2.2-8.1-2.2-11.8,0
		c-1.3,0.7-2.6,1.1-4,1.1L44.9,73l-1.2,4.3c2.5,0.3,4.9-0.2,7.2-1.6c2.6-1.6,5.7-1.6,8.3,0c1.9,1.1,3.9,1.6,5.9,1.6
		c2,0,4-0.5,5.9-1.6c2.6-1.6,5.7-1.6,8.3,0c3.7,2.2,8.1,2.2,11.8,0c1-0.5,1.4-2,0.8-3.1C91.5,71.6,90.3,71.1,89.3,71.7z"/>
	<path class="st1" d="M53.4,60.7l0.1,0.9c0.1,1.5-0.3,2.8-0.8,4c2.2-0.7,4.6-0.5,6.6,0.7c1.9,1.1,3.9,1.6,5.9,1.6c2,0,4-0.5,5.9-1.6
		c2.6-1.6,5.7-1.6,8.3,0c3.7,2.2,8.1,2.2,11.8,0c1-0.5,1.4-1.9,0.8-3.1c-0.4-1.2-1.6-1.6-2.6-1.1c-2.6,1.6-5.7,1.6-8.3,0
		c-3.7-2.2-8.1-2.2-11.8,0c-2.6,1.6-5.7,1.6-8.3,0C58.6,60.9,56,60.4,53.4,60.7z"/>
	<path class="st1" d="M50.2,63.7c0.5-0.4,0.8-1,0.7-1.6l-1-12.1l7.8-7.3c0.2-0.2,0.4-0.5,0.5-0.7l4.3-12.3c0.2-0.5,0.1-1.2-0.3-1.7
		c-0.4-0.5-0.9-0.8-1.6-0.8H25.5c-1,0-1.8,0.8-1.8,1.8v55.5c0,1,0.8,1.8,1.8,1.8h9.7c0.8,0,1.6-0.5,1.7-1.3l4.7-14.6L50.2,63.7z"/>
</g>
</svg>
