<svg xmlns="http://www.w3.org/2000/svg" viewBox="-8 -7 115 115">
    <rect x="-8" y="-7" width="115" height="115" fill="black"/>
    <g fill="white">
        <path d="M93.8,76.5c-3.4,1.7-7.4,1.7-10.7,0c-4.8-2.4-10.5-2.4-15.2,0c-3.4,1.7-7.4,1.7-10.7,0c-4.8-2.4-10.5-2.4-15.2,0c-2.7,1.3-5.7,1.6-8.6,0.8l-1.6,4.9v0c4.1,1.2,8.5,0.8,12.4-1.1c3.4-1.6,7.4-1.6,10.7,0c2.4,1.2,5,1.8,7.6,1.8c2.6,0,5.2-0.6,7.6-1.8c3.4-1.6,7.4-1.6,10.7,0c4.8,2.4,10.4,2.4,15.2,0c1.3-0.6,1.8-2.1,1.1-3.4C96.6,76.4,95.1,75.9,93.8,76.5z"/>
        <path d="M93.8,66.1c-3.4,1.6-7.4,1.6-10.7,0c-4.8-2.4-10.5-2.4-15.2,0c-3.4,1.6-7.4,1.6-10.7,0c-4.8-2.4-10.5-2.4-15.2,0c-1.6,0.8-3.4,1.2-5.2,1.2l-0.4,0.3l-1.5,4.7c3.2,0.3,6.4-0.2,9.3-1.7c3.4-1.7,7.4-1.7,10.7,0c2.4,1.2,5,1.8,7.6,1.8c2.6,0,5.2-0.6,7.6-1.8c3.4-1.7,7.4-1.7,10.7,0c4.8,2.4,10.4,2.4,15.2,0c1.3-0.6,1.8-2.2,1.1-3.4C96.6,66,95.1,65.5,93.8,66.1z"/>
        <path d="M47.4,54.1l0.1,1c0.1,1.6-0.3,3.1-1.1,4.4c2.8-0.8,5.9-0.5,8.6,0.8c2.4,1.2,5,1.8,7.6,1.8c2.6,0,5.2-0.6,7.6-1.8c3.4-1.7,7.4-1.7,10.7,0c4.8,2.4,10.4,2.4,15.2,0c1.3-0.6,1.8-2.1,1.1-3.4c-0.6-1.3-2.1-1.8-3.4-1.2c-3.4,1.7-7.4,1.7-10.7,0c-4.8-2.4-10.5-2.4-15.2,0c-3.4,1.7-7.4,1.7-10.7,0C54.1,54.3,50.7,53.7,47.4,54.1z"/>
        <path d="M41.5,57.3c0.6-0.4,0.9-1.1,0.8-1.8l-1.1-13.3l8.6-8c0.2-0.2,0.4-0.5,0.5-0.8l4.7-13.5c0.2-0.6,0.1-1.3-0.3-1.9s-1-0.9-1.7-0.9H4.5c-1.1,0-2,0.9-2,2V80c0,1.1,0.9,2,2,2H25c0.9,0,1.7-0.6,1.9-1.4L32,64.6L41.5,57.3z"/>
    </g>
</svg>