<?xml version="1.0" encoding="utf-8"?>
<!-- Generator: Adobe Illustrator 26.1.0, SVG Export Plug-In . SVG Version: 6.00 Build 0)  -->
<svg version="1.1" id="Calque_1" xmlns="http://www.w3.org/2000/svg" xmlns:xlink="http://www.w3.org/1999/xlink" x="0px" y="0px"
	 viewBox="0 0 115 115" style="enable-background:new 0 0 115 115;" xml:space="preserve">
<style type="text/css">
	.st0{stroke:#000000;stroke-width:60;stroke-linejoin:round;stroke-miterlimit:10;}
	.st1{fill:#FFFFFF;}
</style>
<rect x="35" y="35" class="st0" width="45" height="45"/>
<g>
	<path class="st1" d="M97.9,81.2c-3.1,1.6-6.7,1.6-9.8,0c-4.4-2.2-9.6-2.2-13.9,0c-3.1,1.6-6.7,1.6-9.8,0c-4.4-2.2-9.6-2.2-13.9,0
		c-2.5,1.2-5.2,1.5-7.8,0.7l-1.5,4.5l0,0c3.7,1.1,7.8,0.7,11.3-1c3.1-1.5,6.7-1.5,9.8,0c2.2,1.1,4.6,1.6,6.9,1.6s4.7-0.5,6.9-1.6
		c3.1-1.5,6.7-1.5,9.8,0c4.4,2.2,9.5,2.2,13.9,0c1.2-0.5,1.6-1.9,1-3.1C100.5,81.1,99.1,80.6,97.9,81.2z"/>
	<path class="st1" d="M97.9,71.7c-3.1,1.5-6.7,1.5-9.8,0c-4.4-2.2-9.6-2.2-13.9,0c-3.1,1.5-6.7,1.5-9.8,0c-4.4-2.2-9.6-2.2-13.9,0
		c-1.5,0.7-3.1,1.1-4.7,1.1L45.6,73l-1.4,4.3c2.9,0.3,5.8-0.2,8.5-1.6c3.1-1.6,6.7-1.6,9.8,0c2.2,1.1,4.6,1.6,6.9,1.6
		c2.4,0,4.7-0.5,6.9-1.6c3.1-1.6,6.7-1.6,9.8,0c4.4,2.2,9.5,2.2,13.9,0c1.2-0.5,1.6-2,1-3.1C100.5,71.6,99.1,71.1,97.9,71.7z"/>
	<path class="st1" d="M55.6,60.7l0.1,0.9c0.1,1.5-0.3,2.8-1,4c2.6-0.7,5.4-0.5,7.8,0.7c2.2,1.1,4.6,1.6,6.9,1.6s4.7-0.5,6.9-1.6
		c3.1-1.6,6.7-1.6,9.8,0c4.4,2.2,9.5,2.2,13.9,0c1.2-0.5,1.6-1.9,1-3.1c-0.5-1.2-1.9-1.6-3.1-1.1c-3.1,1.6-6.7,1.6-9.8,0
		c-4.4-2.2-9.6-2.2-13.9,0c-3.1,1.6-6.7,1.6-9.8,0C61.7,60.9,58.6,60.4,55.6,60.7z"/>
	<path class="st1" d="M50.2,63.7c0.5-0.4,0.8-1,0.7-1.6l-1-12.1l7.8-7.3c0.2-0.2,0.4-0.5,0.5-0.7l4.3-12.3c0.2-0.5,0.1-1.2-0.3-1.7
		c-0.4-0.5-0.9-0.8-1.6-0.8H16.5c-1,0-1.8,0.8-1.8,1.8v55.5c0,1,0.8,1.8,1.8,1.8h18.7c0.8,0,1.6-0.5,1.7-1.3l4.7-14.6L50.2,63.7z"/>
</g>
</svg>
